<?xml version="1.0" standalone="no"?>
<!DOCTYPE svg PUBLIC "-//W3C//DTD SVG 20010904//EN"
 "http://www.w3.org/TR/2001/REC-SVG-20010904/DTD/svg10.dtd">
<svg version="1.0" xmlns="http://www.w3.org/2000/svg"
 width="500.000000pt" height="500.000000pt" viewBox="0 0 500.000000 500.000000"
 preserveAspectRatio="xMidYMid meet">
<metadata>
Created by potrace 1.11, written by Peter Selinger 2001-2013
</metadata>
<g transform="translate(0.000000,500.000000) scale(0.100000,-0.100000)"
fill="#000000" stroke="none">
<path d="M2300 4870 c-1018 -92 -1859 -807 -2104 -1788 -53 -215 -70 -348 -70
-577 0 -390 72 -701 244 -1050 129 -262 265 -450 478 -657 352 -342 773 -554
1267 -639 154 -26 458 -36 616 -20 1132 119 2013 1000 2130 2130 17 161 7 463
-20 616 -93 528 -321 960 -697 1325 -364 353 -816 572 -1329 645 -128 19 -392
26 -515 15z m1660 -2076 l0 -94 66 0 c57 0 65 -2 62 -17 -2 -14 -18 -20 -66
-27 l-62 -9 0 -167 c0 -144 2 -169 16 -174 31 -12 44 -5 62 32 19 41 45 49 50
15 5 -32 -24 -81 -61 -104 -42 -27 -145 -23 -178 6 -41 37 -49 75 -49 239 l0
155 -50 7 c-40 5 -50 10 -50 25 0 16 8 19 50 19 l50 0 0 85 0 84 58 16 c31 9
62 18 67 19 26 8 35 -19 35 -110z m-2828 -201 c3 -289 4 -298 23 -301 27 -5
45 -21 39 -35 -3 -9 -63 -12 -217 -12 -116 0 -234 -2 -262 -5 l-50 -5 0 38 c0
20 -1 37 -2 37 -2 0 -23 -15 -47 -34 -57 -43 -107 -60 -160 -53 -54 7 -86 44
-86 97 0 78 96 145 226 157 64 6 65 6 59 32 -12 48 -40 86 -78 105 -34 16 -42
17 -74 5 -42 -16 -72 -53 -82 -100 -7 -37 -37 -52 -47 -24 -19 49 52 150 130
186 56 26 160 25 202 0 76 -47 114 -143 114 -293 l0 -88 34 0 c19 0 37 -4 40
-8 3 -4 21 -6 40 -4 l36 4 0 273 0 273 -35 6 c-32 6 -44 23 -28 39 3 4 55 7
115 7 l108 0 2 -297z m1984 144 c6 -18 -23 -198 -35 -210 -15 -15 -30 1 -41
42 -23 88 -108 120 -164 62 -76 -79 -73 -280 5 -335 55 -38 129 -5 170 76 22
43 42 46 47 7 4 -37 -48 -102 -105 -130 -128 -62 -286 5 -323 137 -27 94 2
215 67 276 78 74 224 78 300 6 l22 -20 6 38 c4 22 8 45 10 52 6 16 34 16 41
-1z m-1071 -27 c9 -15 -14 -40 -36 -40 -16 0 -11 -12 28 -65 l47 -66 32 38
c18 21 40 50 49 66 16 26 16 27 -8 27 -26 0 -52 23 -43 38 3 5 53 9 111 9 94
0 105 -1 105 -17 0 -20 -19 -30 -60 -30 -23 0 -35 -9 -61 -46 -17 -25 -45 -61
-61 -80 -37 -42 -36 -46 52 -153 50 -60 73 -81 100 -87 21 -5 35 -15 35 -24 0
-12 -26 -16 -150 -22 -82 -3 -153 -4 -157 -2 -15 9 -8 23 17 37 l26 13 -31 40
c-18 21 -35 39 -39 39 -9 0 -91 -72 -91 -80 0 -3 9 -5 19 -5 25 0 36 -17 23
-33 -7 -8 -43 -12 -109 -11 -89 1 -98 3 -98 20 0 15 9 20 42 24 33 4 58 18
113 64 38 32 70 61 70 65 0 3 -27 44 -61 91 -33 47 -67 97 -75 112 -10 19 -25
29 -50 34 -25 5 -34 11 -32 23 3 13 22 17 108 22 58 3 122 6 142 7 20 1 40 -3
43 -8z m-441 -33 c55 -30 86 -91 86 -170 0 -57 0 -58 -37 -75 -28 -12 -66 -17
-140 -17 -116 0 -116 0 -84 -72 19 -42 61 -73 99 -73 10 0 42 12 71 26 41 21
55 24 64 15 20 -20 -42 -67 -104 -80 -98 -21 -214 23 -267 102 -75 112 -39
286 71 344 74 38 171 39 241 0z m1922 9 c141 -66 179 -256 75 -377 -47 -56
-100 -79 -181 -79 -143 0 -232 90 -233 235 -1 183 175 298 339 221z m951 3
c81 -30 122 -120 130 -281 l6 -107 36 -3 c28 -2 36 -7 36 -23 0 -18 -9 -21
-70 -26 -38 -3 -91 -9 -117 -14 l-48 -7 0 41 0 41 -45 -34 c-56 -43 -106 -60
-158 -53 -89 12 -119 100 -57 170 37 43 111 75 190 84 33 3 62 9 64 12 9 14
-25 88 -50 108 -74 59 -157 23 -185 -80 -13 -48 -42 -48 -47 -1 -5 47 51 122
117 156 58 30 144 38 198 17z"/>
<path d="M562 2425 c-74 -16 -124 -45 -140 -80 -16 -34 -15 -40 4 -59 26 -26
95 -20 142 12 51 34 104 104 96 126 -7 19 -18 19 -102 1z"/>
<path d="M1479 2645 c-47 -26 -90 -156 -58 -176 20 -12 146 -11 193 2 38 10
38 11 32 51 -13 78 -49 122 -112 133 -16 3 -40 -1 -55 -10z"/>
<path d="M3435 2653 c-50 -12 -83 -66 -91 -152 -8 -73 10 -152 43 -192 44 -52
134 -35 187 34 71 92 39 254 -58 298 -42 19 -48 20 -81 12z"/>
<path d="M4370 2430 c-128 -22 -205 -94 -154 -144 19 -20 86 -21 123 -2 43 23
111 102 111 131 0 27 -4 28 -80 15z"/>
</g>
</svg>
